********************************************************************************

Wreck It Ralph 2012 1080p BluRay x264 2Audio - alrmothe

********************************************************************************

TiTLE:Wreck-It Ralph 
YEAR:2012
GENRE :Animation | Adventure | Comedy 
imdb URL :http://www.imdb.com/title/tt1772341/
Format: Matroska
Format version: Version 4 / Version 2
File size:  8.15 GiB
Duration:  1h 31mn
Overall bit rate: 11.8 Mbps
Sub:English,Arabic,Spanish,French 
*********************************************************************************

Video
Format: AVC
Format/Info : Advanced Video Codec
Format profile: High@L4.1
Format settings, CABAC: Yes
Format settings, ReFrames: 5 frames
Muxing mode: Header stripping
Codec ID: V_MPEG4/ISO/AVC
Bit rate: 9304 Kbps
Width: 1920 pixels
Height: 808 pixels
Display aspect ratio: 2.40:1
Frame rate mode: Constant
Frame rate: 23.976 fps
Color space: YUV
Chroma subsampling: 4:2:0
Bit depth: 8 bits
Scan type: Progressive
Bits/(Pixel*Frame): 0.250
Stream size: 6.42 GiB (79%)
Title: Wreck It Ralph 2012 1080p BluRay x264 2Audio - alrmothe


Audio #1
Format : DTS
Format/Info : Digital Theater Systems
Mode : 16
Format settings, Endianness : Big
Muxing mode : Header stripping
Codec ID : A_DTS
Duration : 1h 14mn
Bit rate mode : Constant
Bit rate : 1509 Kbps
Channel(s) : 6 channels
Channel positions : Front: L C R, Side: L R, LFE
Sampling rate  : 48.0 KHz
Bit depth  : 24 bits
Compression mode : Lossy
Stream size  : 1.07 GiB (13%)
Title : DTS 1536 Kbps
Language : English


Audio #2
ID  : 3
Format: AC-3
Format/Info : Audio Coding 3
Mode extension: CM (complete main)
Format settings, Endianness: Big
Muxing mode : Header stripping
Codec ID : A_AC3
Duration: 1h 14mn
Bit rate mode: Constant
Bit rate : 640 Kbps
Channel(s): 6 channels
Channel positions: Front: L C R, Side: L R, LFE
Sampling rate: 48.0 KHz
Bit depth: 16 bits
Compression mode: Lossy
Stream size: 443 MiB (6%)
Title : AC3 640
Language : Arabic
Default : No
Forced: No


*************************************************************************************

Screenshots 
http://img521.imageshack.us/img521/2077/vlcsnap2013030313h27m54.png 
http://img14.imageshack.us/img14/3457/vlcsnap2013030313h28m47.png 
http://img17.imageshack.us/img17/7866/vlcsnap2013030313h29m59.png 
http://img545.imageshack.us/img545/6659/vlcsnap2013030215h02m51.png 
http://img600.imageshack.us/img600/4126/vlcsnap2013030215h12m10.png 
http://img856.imageshack.us/img856/8991/vlcsnap2013030215h13m11.png 
http://img69.imageshack.us/img69/4545/vlcsnap2013030215h14m12.png
 
http://img443.imageshack.us/img443/1931/wreckitralph2012.jpg


